<?xml version="1.0" encoding="UTF-8"?>
<svg width="80px" height="80px" viewBox="0 0 80 80" version="1.1" xmlns="http://www.w3.org/2000/svg" xmlns:xlink="http://www.w3.org/1999/xlink">
    <title>深度杂谈</title>
    <defs>
        <linearGradient x1="7.9658214%" y1="11.0506138%" x2="91.3585263%" y2="91.2885446%" id="linearGradient-1">
            <stop stop-color="#2AC5FF" offset="0%"></stop>
            <stop stop-color="#287CF3" offset="100%"></stop>
        </linearGradient>
        <rect id="path-2" x="0" y="0" width="80" height="80" rx="8"></rect>
        <linearGradient x1="33.3430632%" y1="6.52106584%" x2="55.8923596%" y2="81.4454835%" id="linearGradient-4">
            <stop stop-color="#FFFFFF" stop-opacity="0.2" offset="0%"></stop>
            <stop stop-color="#FFFFFF" stop-opacity="0" offset="100%"></stop>
        </linearGradient>
        <linearGradient x1="62.3987027%" y1="50%" x2="12.6602938%" y2="50%" id="linearGradient-5">
            <stop stop-color="#289AF8" offset="0%"></stop>
            <stop stop-color="#84D6FF" offset="100%"></stop>
        </linearGradient>
    </defs>
    <g id="深度杂谈" stroke="none" stroke-width="1" fill="none" fill-rule="evenodd">
        <g id="椭圆形-+-椭圆形备份-蒙版">
            <mask id="mask-3" fill="white">
                <use xlink:href="#path-2"></use>
            </mask>
            <use id="蒙版" fill="url(#linearGradient-1)" xlink:href="#path-2"></use>
            <circle id="椭圆形" fill="url(#linearGradient-4)" mask="url(#mask-3)" cx="60" cy="55" r="29"></circle>
            <circle id="椭圆形备份" fill-opacity="0.1" fill="#FFFFFF" mask="url(#mask-3)" cx="37.5" cy="81.5" r="12.5"></circle>
        </g>
        <g id="反馈" transform="translate(23.000000, 23.000000)">
            <path d="M-3.41797273e-06,17.5000204 C-3.41797273e-06,7.83501888 7.83501888,0 17.5000204,0 C27.1650218,0 35.0000407,7.83501888 35.0000407,17.5000204 C35.0000407,27.1650218 27.1650218,35.0000407 17.5000204,35.0000407 L3.17929569,35.0000407 C1.42343525,35.0000407 -3.41797273e-06,33.5753511 -3.41797273e-06,31.8207416 L-3.41797273e-06,17.5000169 L-3.41797273e-06,17.5000204 Z M9.53125621,12.3437692 C9.53125621,12.989667 10.0653965,13.5156451 10.7242278,13.5156451 L16.3070419,13.5156451 C16.9647761,13.5156451 17.5000135,12.9909966 17.5000135,12.3437692 C17.5000135,11.6978715 16.9658733,11.1718934 16.3070419,11.1718934 L10.7242278,11.1718934 C10.0664936,11.1718934 9.53125621,11.6965419 9.53125621,12.3437692 Z" id="形状" fill="#FFFFFF" fill-rule="nonzero"></path>
            <path d="M9.53125621,23.3594168 C9.53125621,24.0053146 10.0649282,24.5312927 10.7232879,24.5312927 L24.1986112,24.5312927 C24.8584542,24.5312927 25.3906428,24.0066441 25.3906428,23.3594168 C25.3906428,22.7135191 24.8569708,22.187541 24.1986112,22.187541 L10.7232879,22.187541 C10.0634448,22.187541 9.53125621,22.7121895 9.53125621,23.3594168 Z" id="路径" fill="url(#linearGradient-5)"></path>
            <path d="M9.53125621,17.8125256 C9.53125621,18.4584233 10.0649282,18.9844015 10.7232879,18.9844015 L24.1986112,18.9844015 C24.8584542,18.9844015 25.3906428,18.4597529 25.3906428,17.8125256 C25.3906428,17.1666279 24.8569708,16.6406497 24.1986112,16.6406497 L10.7232879,16.6406497 C10.0634448,16.6406497 9.53125621,17.1652983 9.53125621,17.8125256 Z" id="路径" fill="url(#linearGradient-5)"></path>
        </g>
    </g>
</svg>