<svg width="16" height="16" xmlns="http://www.w3.org/2000/svg">
  <path d="M6.222 16c-.21 0-.393-.099-.547-.297l-5.444-7A1.111 1.111 0 010 8c0-.27.077-.505.23-.703l5.445-7C5.83.099 6.012 0 6.222 0c.21 0 .393.099.547.297C6.923.495 7 .729 7 1v14c0 .27-.077.505-.23.703-.155.198-.337.297-.548.297zm3.556 0c-.21 0-.393-.099-.547-.297A1.111 1.111 0 019 15V1c0-.27.077-.505.23-.703C9.386.099 9.568 0 9.779 0c.21 0 .393.099.547.297l5.444 7c.154.198.231.432.231.703 0 .27-.077.505-.23.703l-5.445 7c-.154.198-.337.297-.547.297z" fill="#7AC7FF" fill-rule="nonzero"/>
</svg>