<svg width="16" height="16" xmlns="http://www.w3.org/2000/svg" xmlns:xlink="http://www.w3.org/1999/xlink">
 <defs>
  <filter id="prefix__a" filterUnits="objectBoundingBox" height="103.8%" width="108.9%" y="-1.4%" x="-4.4%">
   <feGaussianBlur stdDeviation="2"/>
  </filter>
  <path d="m0,0l158,0l0,366l-158,0l0,-366z" id="prefix__b"/>
 </defs>
 <g>
  <title>background</title>
  <rect fill="none" id="canvas_background" height="18" width="18" y="-1" x="-1"/>
 </g>
 <g>
  <title>Layer 1</title>
  <g id="svg_1" fill-rule="evenodd" fill="none">   
   <path id="svg_6" fill-rule="nonzero" fill="#59ABFD" d="m12.55,12.367l-1.82,0c-2.66,0 -5.25,0.568 -7.63,1.633l0,-1.704c-1.19,-0.142 -2.1,-1.136 -2.1,-2.414l0,-5.468c0,-1.349 1.12,-2.414 2.45,-2.414l9.1,0c1.33,0 2.45,1.065 2.45,2.414l0,5.539c0,1.349 -1.12,2.485 -2.45,2.414z"/>
  </g>
 </g>
</svg>