<svg width="16" height="16" xmlns="http://www.w3.org/2000/svg" xmlns:xlink="http://www.w3.org/1999/xlink">
 <defs>
  <filter id="prefix__a" filterUnits="objectBoundingBox" height="103.8%" width="108.9%" y="-1.4%" x="-4.4%">
   <feGaussianBlur stdDeviation="2"/>
  </filter>
  <path d="m0,0l158,0l0,366l-158,0l0,-366z" id="prefix__b"/>
 </defs>
 <g>
  <title>background</title>
  <rect fill="none" id="canvas_background" height="18" width="18" y="-1" x="-1"/>
 </g>
 <g>
  <title>Layer 1</title>
  <g id="svg_1" fill-rule="evenodd" fill="none">   
   <path id="svg_6" fill-rule="nonzero" fill="#EC9281" d="m14.884,6.400594c-0.234,-0.77 -0.876,-1.362 -1.634,-1.362l-1.75,0c0.058,-0.828 0,-0.946 0,-1.42c0,-0.888 -0.35,-1.717 -0.35,-1.777c-0.35,-0.591 -0.874,-0.947 -1.516,-0.947a1.613,1.613 0 0 0 -1.167,0.474c-0.291,0.296 -0.467,0.77 -0.467,1.184l0,0.236c0,0.651 -0.29,1.303 -0.758,1.835c-0.525,0.533 -0.934,1.007 -1.575,1.007l-2.917,0c-1.516,0.001 -1.75,1.304 -1.75,1.777l0,5.921c0,0.474 0.176,0.888 0.584,1.243c0.35,0.356 0.758,0.534 1.224,0.534l8.984,0c0.992,0 1.75,-0.652 2.1,-1.777c0.058,-0.119 0.058,-0.178 0.058,-0.296l0.992,-5.743c0.058,-0.296 0.116,-0.533 -0.058,-0.889z"/>
  </g>
 </g>
</svg>