<svg width="20" height="20" viewBox="0 0 20 20" xmlns="http://www.w3.org/2000/svg"><path fill="#A9A9A9" d="M17.743 4.182a.243.243 0 00-.043-.05.262.262 0 00-.382 0l-3.665 3.661-1.445-1.445 3.673-3.67c.017-.017.034-.034.042-.05a.275.275 0 00-.093-.375 5.459 5.459 0 00-6.623.84 5.451 5.451 0 00-1.428 5.27l-6.232 6.236c-.068.068-.06.17.008.238l3.614 3.61c.068.07.17.07.238.01l6.231-6.229a5.459 5.459 0 005.271-1.41 5.477 5.477 0 00.834-6.636zm-1.922 5.54a3.931 3.931 0 01-4.565.713l-.187.187-5.832 5.83-1.684-1.683L8.45 9.874l1.123-1.12a3.926 3.926 0 01.714-4.564 3.949 3.949 0 013.07-1.139l-2.832 2.821a.682.682 0 000 .96l2.652 2.652a.683.683 0 00.96 0l2.824-2.82a3.937 3.937 0 01-1.14 3.058z"/></svg>
