<svg width="16" height="16" xmlns="http://www.w3.org/2000/svg" xmlns:xlink="http://www.w3.org/1999/xlink">
 <defs>
  <filter id="prefix__a" filterUnits="objectBoundingBox" height="103.8%" width="108.9%" y="-1.4%" x="-4.4%">
   <feGaussianBlur stdDeviation="2"/>
  </filter>
  <path d="m0,0l158,0l0,366l-158,0l0,-366z" id="prefix__b"/>
 </defs>
 <g>
  <title>background</title>
  <rect fill="none" id="canvas_background" height="18" width="18" y="-1" x="-1"/>
 </g>
 <g>
  <title>Layer 1</title>
  <g id="svg_1" fill-rule="evenodd" fill="none">
   <path id="svg_6" fill="#FFD52C" opacity="0.9" d="m8,13.579162l-3.702,1.657a1,1 0 0 1 -1.403,-1.019l0.432,-4.033l-2.72,-3.008a1,1 0 0 1 0.536,-1.65l3.969,-0.835l2.021,-3.515a1,1 0 0 1 1.734,0l2.021,3.516l3.969,0.835a1,1 0 0 1 0.536,1.65l-2.72,3.008l0.432,4.033a1,1 0 0 1 -1.403,1.02l-3.702,-1.66l0,0.001z"/>
  </g>
 </g>
</svg>