<svg width="16" height="16" xmlns="http://www.w3.org/2000/svg"><path fill-rule="nonzero" fill="#8CE892" d="M1.5 14.51V1.49c.184-.35.46-.47.827-.446.447.028.897.006 1.346.006.713 0 .89.192.89.967v11.967c0 .083.003.166-.003.246-.033.483-.252.716-.695.72-.513.004-1.027-.02-1.538.007-.368.02-.64-.107-.827-.447zm10.902.49h-.514c-.133-.238-.324-.46-.388-.717-.977-3.92-1.936-7.844-2.9-11.768-.144-.595.003-.86.55-1.03.507-.155 1.014-.321 1.52-.485h.448c.146.23.365.437.427.691.98 3.922 1.939 7.85 2.9 11.777.15.617.004.874-.562 1.049-.496.154-.99.321-1.48.483h-.001zM8.187 8.014v6.05c0 .699-.177.885-.82.885-.523.003-1.047.008-1.57 0-.425-.004-.641-.25-.641-.72V1.778c0-.493.208-.72.666-.725.545-.007 1.09-.004 1.634-.003.525.002.729.223.73.808.003 2.052.002 4.103.002 6.155l-.001.001z"/></svg>